<?xml version="1.0" encoding="UTF-8" standalone="no"?>
<svg
   xmlns:dc="http://purl.org/dc/elements/1.1/"
   xmlns:cc="http://creativecommons.org/ns#"
   xmlns:rdf="http://www.w3.org/1999/02/22-rdf-syntax-ns#"
   xmlns:svg="http://www.w3.org/2000/svg"
   xmlns="http://www.w3.org/2000/svg"
   viewBox="0 0 75.590668 75.590668"
   height="75.590668"
   width="75.590668"
   xml:space="preserve"
   id="svg2"
   version="1.1"><metadata
     id="metadata8"><rdf:RDF><cc:Work
         rdf:about=""><dc:format>image/svg+xml</dc:format><dc:type
           rdf:resource="http://purl.org/dc/dcmitype/StillImage" /></cc:Work></rdf:RDF></metadata><defs
     id="defs6" /><g
     transform="matrix(1.3333333,0,0,-1.3333333,0,75.590667)"
     id="g10"><g
       id="g12"><g
         id="g14"><g
           id="g16"><path
             id="path18"
             style="fill:#00004c;fill-opacity:1;fill-rule:nonzero;stroke:none"
             d="m 0,3.9851 v 48.72341 c 0,2.20094 1.78416,3.98511 3.9851,3.98511 h 48.72341 c 2.20094,0 3.98511,-1.78417 3.98511,-3.98511 V 3.9851 C 56.69362,1.78416 54.90945,0 52.70851,0 H 3.9851 C 1.78416,0 0,1.78416 0,3.9851 Z" /></g><g
           id="g20"><g
             id="g22"><g
               id="g24"><path
                 id="path26"
                 style="fill:#b4b4b4;fill-opacity:1;fill-rule:nonzero;stroke:none"
                 d="m 27.63788,-8.50412 c 0,1.40895 -2.9189,2.5511 -6.51965,2.5511 -3.60074,0 -6.51964,-1.14215 -6.51964,-2.5511 0,-1.40895 2.9189,-2.5511 6.51964,-2.5511 3.60075,0 6.51965,1.14215 6.51965,2.5511 z" /></g><g
               id="g28"><path
                 id="path30"
                 style="fill:#b4b4b4;fill-opacity:1;fill-rule:nonzero;stroke:none"
                 d="m 42.09502,-8.50412 c 0,1.40895 -2.9189,2.5511 -6.51964,2.5511 -3.60074,0 -6.51965,-1.14215 -6.51965,-2.5511 0,-1.40895 2.91891,-2.5511 6.51965,-2.5511 3.60074,0 6.51964,1.14215 6.51964,2.5511 z" /></g><g
               id="g32"><path
                 id="path34"
                 style="fill:#b4b4b4;fill-opacity:1;fill-rule:nonzero;stroke:none"
                 d="m 46.48872,47.33913 c 0,4.38356 -3.55349,7.93705 -7.93705,7.93705 -4.38358,0 -7.93706,-3.55349 -7.93706,-7.93705 0,-4.38358 3.55348,-7.93708 7.93706,-7.93708 4.38356,0 7.93705,3.5535 7.93705,7.93708 z" /></g><g
               id="g36"><path
                 id="path38"
                 style="fill:#b4b4b4;fill-opacity:1;fill-rule:nonzero;stroke:none"
                 d="m 26.079,47.33913 c 0,4.38356 -3.55349,7.93705 -7.93706,7.93705 -4.38356,0 -7.93706,-3.55349 -7.93706,-7.93705 0,-4.38358 3.5535,-7.93708 7.93706,-7.93708 4.38357,0 7.93706,3.5535 7.93706,7.93708 z" /></g><g
               id="g40"><path
                 id="path42"
                 style="fill:#8c8c8c;fill-opacity:1;fill-rule:nonzero;stroke:none"
                 d="m 42.8035,47.33913 c 0,2.34823 -1.90358,4.25183 -4.25183,4.25183 -2.34826,0 -4.25185,-1.9036 -4.25185,-4.25183 0,-2.34825 1.90359,-4.25185 4.25185,-4.25185 2.34825,0 4.25183,1.9036 4.25183,4.25185 z" /></g><g
               id="g44"><path
                 id="path46"
                 style="fill:#8c8c8c;fill-opacity:1;fill-rule:nonzero;stroke:none"
                 d="m 22.39378,47.33913 c 0,2.34823 -1.90359,4.25183 -4.25184,4.25183 -2.34825,0 -4.25184,-1.9036 -4.25184,-4.25183 0,-2.34825 1.90359,-4.25185 4.25184,-4.25185 2.34825,0 4.25184,1.9036 4.25184,4.25185 z" /></g><g
               id="g48"><path
                 id="path50"
                 style="fill:#b4b4b4;fill-opacity:1;fill-rule:nonzero;stroke:none"
                 d="m 59.03233,32.10555 c 7.6594,3.40452 16.39579,-8.96303 14.46538,-9.0768 C 54.32373,47.79283 51.98239,3.75616 38.85791,-1.55626 35.51567,-2.90837 28.16557,-3.1917 28.16557,-3.1917 26.14693,-3.50096 25.9034,0.07352 28.08598,0.09645 c 0,0 1.28983,-1.25565 10.22736,1.1393 9.05432,4.39978 11.61407,26.61495 20.71899,30.8698 z" /></g><g
               id="g52"><path
                 id="path54"
                 style="fill:#8c8c8c;fill-opacity:1;fill-rule:nonzero;stroke:none"
                 d="m 45.21318,11.90561 c 0,-18.70899 -6.80339,-20.97679 -16.86638,-20.97679 -10.06299,0 -16.86638,2.2678 -16.86638,20.97679 -0.28331,18.709 7.37003,33.73276 16.86638,33.73276 9.49635,0 17.14969,-15.02376 16.86638,-33.73276 z" /></g><g
               id="g56"><path
                 id="path58"
                 style="fill:#b4b4b4;fill-opacity:1;fill-rule:nonzero;stroke:none"
                 d="m 42.5202,36.85092 c 0,-6.23631 -8.50412,-15.59082 -14.1734,-18.14194 -5.66926,2.55112 -14.1734,11.90563 -14.1734,18.14194 4.53558,14.17342 23.81122,14.17342 28.3468,0 z" /></g><g
               id="g60"><path
                 id="path62"
                 style="fill:#b4b4b4;fill-opacity:1;fill-rule:nonzero;stroke:none"
                 d="m 42.99982,11.30455 c 1.28514,3.53085 0.7765,6.95743 -1.13605,7.65353 -1.91257,0.69612 -4.50477,-1.60182 -5.7899,-5.13268 -1.28514,-3.53086 -0.77651,-6.95743 1.13605,-7.65354 1.91256,-0.69612 4.50477,1.60184 5.7899,5.13269 z" /></g><g
               id="g64"><path
                 id="path66"
                 style="fill:#b4b4b4;fill-opacity:1;fill-rule:nonzero;stroke:none"
                 d="m 20.61974,13.8254 c -1.28513,3.53086 -3.87734,5.8288 -5.78991,5.13268 -1.91255,-0.6961 -2.42118,-4.12268 -1.13604,-7.65353 1.28512,-3.53085 3.87733,-5.82881 5.7899,-5.13269 1.91255,0.69611 2.42119,4.12268 1.13605,7.65354 z" /></g><g
               id="g68"><path
                 id="path70"
                 style="fill:#464646;fill-opacity:1;fill-rule:nonzero;stroke:none"
                 d="m 30.58041,19.9733 c 2.46634,0.43341 3.67962,-1.43732 6.14551,-1.87116 v 0.28376 c -2.43475,0.42777 -3.70772,2.01518 -6.14551,1.5874 z" /></g><g
               id="g72"><path
                 id="path74"
                 style="fill:#464646;fill-opacity:1;fill-rule:nonzero;stroke:none"
                 d="m 26.11319,19.9733 c -2.46634,0.43341 -3.68221,-1.43732 -6.14551,-1.87116 v 0.28376 c 2.43476,0.42777 3.70772,2.01518 6.14551,1.5874 z" /></g><g
               id="g76"><path
                 id="path78"
                 style="fill:#464646;fill-opacity:1;fill-rule:nonzero;stroke:none"
                 d="m 30.47835,20.35567 c 2.35559,0.85641 4.0226,0.07959 6.3782,-0.77642 v 0.28331 c -2.34695,0.85341 -4.03082,1.3465 -6.3782,0.49311 z" /></g><g
               id="g80"><path
                 id="path82"
                 style="fill:#464646;fill-opacity:1;fill-rule:nonzero;stroke:none"
                 d="m 26.21526,20.35567 c -2.3556,0.85641 -4.0226,0.07959 -6.37821,-0.77642 v 0.28331 c 2.34695,0.85341 4.03082,1.3465 6.37821,0.49311 z" /></g><g
               id="g84"><path
                 id="path86"
                 style="fill:#464646;fill-opacity:1;fill-rule:nonzero;stroke:none"
                 d="m 30.24866,20.81502 c 2.10646,1.36639 4.28343,2.04374 6.38944,0.67735 v 0.28374 c -2.11466,1.37201 -4.27476,0.41092 -6.38944,-0.96109 z" /></g><g
               id="g88"><path
                 id="path90"
                 style="fill:#464646;fill-opacity:1;fill-rule:nonzero;stroke:none"
                 d="m 26.44495,20.81502 c -2.10646,1.36639 -4.28344,2.04374 -6.38945,0.67735 v 0.28374 c 2.11467,1.37201 4.27476,0.41092 6.38945,-0.96109 z" /></g><g
               id="g92"><path
                 id="path94"
                 style="fill:#464646;fill-opacity:1;fill-rule:nonzero;stroke:none"
                 d="m 30.8979,21.20345 c 0,1.40893 -1.14215,2.5511 -2.5511,2.5511 -1.40895,0 -2.5511,-1.14217 -2.5511,-2.5511 0,-1.40895 1.14215,-2.55112 2.5511,-2.55112 1.40895,0 2.5511,1.14217 2.5511,2.55112 z" /></g><g
               id="g96"><path
                 id="path98"
                 style="fill:#464646;fill-opacity:1;fill-rule:nonzero;stroke:none"
                 d="m 36.28386,33.44902 c 0,0.78284 -0.63458,1.41742 -1.41742,1.41742 -0.78282,0 -1.41742,-0.63458 -1.41742,-1.41742 0,-0.78282 0.6346,-1.4174 1.41742,-1.4174 0.78284,0 1.41742,0.63458 1.41742,1.4174 z" /></g><g
               id="g100"><path
                 id="path102"
                 style="fill:#464646;fill-opacity:1;fill-rule:nonzero;stroke:none"
                 d="m 23.24458,33.44902 c 0,0.78284 -0.63459,1.41742 -1.41742,1.41742 -0.78283,0 -1.41742,-0.63458 -1.41742,-1.41742 0,-0.78282 0.63459,-1.4174 1.41742,-1.4174 0.78283,0 1.41742,0.63458 1.41742,1.4174 z" /></g></g><g
             id="g104"><g
               id="g106"><g
                 id="g108"><path
                   id="path110"
                   style="fill:#000000;fill-opacity:1;fill-rule:nonzero;stroke:none"
                   d="m 42.44246,38.0805 c 0.68886,2.57076 -4.88204,6.29717 -12.44318,8.32328 -7.56112,2.02609 -14.24888,1.58459 -14.93774,-0.98616 -0.68887,-2.57074 4.88203,-6.29717 12.44316,-8.32326 7.56113,-2.02611 14.2489,-1.58459 14.93776,0.98614 z" /></g><g
                 id="g112"><path
                   id="path114"
                   style="fill:#000000;fill-opacity:1;fill-rule:nonzero;stroke:none"
                   d="m 44.54535,40.45187 c 0.68885,2.57076 -5.49501,6.46143 -13.8123,8.69016 -8.31729,2.22873 -15.61803,1.95147 -16.3069,-0.61926 -0.68886,-2.57076 5.49502,-6.46143 13.81231,-8.69016 8.3173,-2.22873 15.61803,-1.95148 16.30689,0.61926 z" /></g><g
                 id="g116"><path
                   id="path118"
                   style="fill:#000000;fill-opacity:1;fill-rule:nonzero;stroke:none"
                   d="m 32.7768,48.00732 c 0.32418,1.2098 -0.39374,2.45331 -1.60354,2.7775 -1.20979,0.32418 -2.4533,-0.39375 -2.77749,-1.60355 -0.32419,-1.20977 0.39375,-2.4533 1.60353,-2.77747 1.20979,-0.3242 2.4533,0.39373 2.7775,1.60352 z" /></g></g></g></g></g></g></g></svg>